<svg xmlns="http://www.w3.org/2000/svg" viewBox="0 0 1200 400"><defs><linearGradient id="bannerBg" x1="0%" x2="100%" y1="0%" y2="100%"><stop offset="0%" style="stop-color:#1a1a2e"/><stop offset="50%" style="stop-color:#16213e"/><stop offset="100%" style="stop-color:#0f3460"/></linearGradient><linearGradient id="textGrad" x1="0%" x2="100%" y1="0%" y2="0%"><stop offset="0%" style="stop-color:#ff6b6b"/><stop offset="50%" style="stop-color:#4ecdc4"/><stop offset="100%" style="stop-color:#45b7d1"/></linearGradient></defs><rect width="1200" height="400" fill="url(#bannerBg)" rx="20"/><g transform="translate(150, 200)"><circle r="80" fill="url(#textGrad)" opacity=".9"/><g fill="#FFF"><path d="M-30,-35 Q-15,-45 0,-38 L0,40 Q-15,35 -30,40 Z"/><path d="M30,-35 Q15,-45 0,-38 L0,40 Q15,35 30,40 Z"/><line x1="0" x2="0" y1="-38" y2="40" stroke="#FFF" stroke-width="4"/></g><ellipse cx="-60" cy="-60" fill="#FFB6C1" rx="12" ry="7" transform="rotate(-30)"/><circle cx="-56" cy="-64" r="5" fill="#FFB6C1"/><circle cx="-64" cy="-56" r="5" fill="#FFB6C1"/><circle cx="-52" cy="-56" r="4" fill="#FF69B4"/><ellipse cx="60" cy="-50" fill="#FFB6C1" rx="10" ry="6" transform="rotate(45)"/><circle cx="64" cy="-54" r="4" fill="#FFB6C1"/><circle cx="56" cy="-46" r="4" fill="#FFB6C1"/><circle cx="68" cy="-46" r="3" fill="#FF69B4"/></g><text x="500" y="180" fill="url(#textGrad)" font-family="system-ui, -apple-system, sans-serif" font-size="80" font-weight="bold">Otaku Reader</text><text x="500" y="240" fill="#888" font-family="system-ui, -apple-system, sans-serif" font-size="28">The Ultimate Manga Experience</text><rect width="140" height="36" x="500" y="280" fill="#FF6B6B" opacity=".9" rx="18"/><text x="570" y="305" fill="#FFF" font-family="system-ui, -apple-system, sans-serif" font-size="14" font-weight="600" text-anchor="middle">2000+ Sources</text><rect width="120" height="36" x="660" y="280" fill="#4ECDC4" opacity=".9" rx="18"/><text x="720" y="305" fill="#FFF" font-family="system-ui, -apple-system, sans-serif" font-size="14" font-weight="600" text-anchor="middle">Cloud Sync</text><rect width="140" height="36" x="800" y="280" fill="#45B7D1" opacity=".9" rx="18"/><text x="870" y="305" fill="#FFF" font-family="system-ui, -apple-system, sans-serif" font-size="14" font-weight="600" text-anchor="middle">Perfect Reader</text></svg>